<?xml version="1.0" standalone="no"?>
<!DOCTYPE svg PUBLIC "-//W3C//DTD SVG 20010904//EN"
 "http://www.w3.org/TR/2001/REC-SVG-20010904/DTD/svg10.dtd">
<svg version="1.0" xmlns="http://www.w3.org/2000/svg"
 width="264.000000pt" height="264.000000pt" viewBox="0 0 264.000000 264.000000"
 preserveAspectRatio="xMidYMid meet">
<metadata>
Created by potrace 1.14, written by Peter Selinger 2001-2017
</metadata>
<g transform="translate(0.000000,264.000000) scale(0.100000,-0.100000)"
fill="#000000" stroke="none">
<path d="M1257 2566 c-3 -7 0 -19 6 -25 6 -6 7 -11 1 -11 -6 0 -10 -18 -9 -41
1 -44 -2 -48 -39 -51 -25 -2 -32 -16 -27 -55 2 -16 0 -16 -33 -3 -18 6 -26 6
-26 -1 0 -6 -9 -8 -21 -4 -12 4 -19 3 -16 -2 3 -5 1 -15 -5 -23 -8 -12 -9 -12
-4 2 7 23 -10 32 -19 10 -15 -33 -14 -44 3 -37 11 4 14 3 7 -4 -5 -5 -49 -11
-97 -13 -47 -2 -84 -6 -81 -11 2 -4 9 -5 14 -2 5 4 9 3 10 -2 0 -4 2 -16 4
-26 3 -14 -1 -18 -16 -14 -13 4 -19 0 -19 -11 0 -11 -3 -13 -8 -6 -6 9 -150
13 -159 4 -7 -7 -29 -5 -40 3 -15 11 -14 11 -17 -25 -2 -20 0 -25 9 -18 7 6
16 5 25 -3 11 -10 11 -8 0 8 -8 11 -10 17 -5 12 4 -4 18 1 29 10 20 17 20 17
6 -1 -8 -11 -14 -21 -12 -23 10 -14 -7 -20 -63 -20 -55 0 -66 2 -64 16 3 35
-2 47 -21 48 -13 1 -18 -2 -13 -10 4 -7 0 -6 -10 2 -14 11 -17 11 -17 0 0 -9
-3 -10 -8 -4 -4 6 -13 10 -19 9 -7 -1 -20 -2 -29 -3 -14 -1 -15 -3 -3 -18 8
-9 9 -14 3 -10 -8 4 -12 -11 -13 -48 -1 -53 0 -55 27 -56 15 -1 29 -1 32 -1
13 1 8 -46 -4 -51 -14 -6 -30 18 -22 32 3 4 -4 7 -13 7 -17 0 -17 -2 1 -27 13
-17 26 -25 39 -22 14 4 17 1 14 -16 -2 -12 1 -21 7 -21 5 0 8 6 5 14 -3 8 1
17 9 20 8 3 14 0 14 -7 0 -8 4 -7 11 3 7 11 9 6 7 -20 l-3 -35 70 -5 70 -5 0
-177 c0 -98 -4 -178 -9 -178 -5 0 -3 -6 3 -14 9 -11 7 -15 -11 -20 -33 -9 -36
-8 -41 12 -5 18 -11 -29 -8 -60 2 -20 5 -19 -71 -22 -31 -1 -60 -5 -65 -9 -4
-5 -3 -8 2 -7 22 5 25 -1 14 -22 -8 -18 -5 -17 15 6 14 16 26 24 26 17 0 -7 5
-9 13 -5 9 5 9 4 0 -6 -6 -7 -9 -19 -6 -26 6 -16 -13 -19 -22 -4 -4 6 -12 7
-18 3 -18 -12 -159 -14 -152 -3 4 6 2 10 -3 10 -5 0 -7 12 -4 26 4 24 2 25
-29 22 -19 -2 -40 -10 -47 -18 -10 -13 -11 -13 -6 3 6 18 -12 23 -31 9 -15
-11 -18 -35 -3 -26 9 6 9 3 -1 -9 -11 -14 -11 -17 0 -17 10 0 10 -3 3 -8 -6
-4 -11 -20 -10 -37 2 -24 6 -30 24 -29 13 1 19 -3 15 -9 -4 -7 0 -8 12 -4 14
6 16 3 12 -13 -7 -26 18 -51 47 -46 16 3 22 -1 22 -15 0 -21 -12 -25 -19 -6
-4 9 -6 9 -6 -1 -1 -7 6 -15 14 -18 8 -4 13 -10 10 -14 -6 -9 37 -6 53 4 6 3
13 2 16 -3 3 -5 19 -7 35 -6 l28 2 1 -174 c1 -124 -2 -172 -10 -167 -6 4 -8 3
-4 -4 3 -5 3 -12 -1 -15 -5 -2 -2 -2 5 0 8 2 12 -4 10 -15 -2 -11 -13 -17 -33
-17 -21 0 -30 -5 -30 -17 0 -9 -3 -20 -7 -23 -4 -4 -4 -14 -1 -22 5 -13 0 -15
-26 -11 -17 3 -34 1 -37 -3 -2 -5 -12 -6 -22 -2 -11 4 -10 0 5 -11 34 -25 19
-45 -33 -43 -24 1 -44 0 -44 -3 0 -3 -23 -5 -51 -4 -39 0 -54 5 -61 18 -8 14
-8 17 2 11 8 -5 11 -1 8 11 -3 16 -13 19 -67 19 l-64 0 -1 -62 c-2 -67 2 -70
64 -64 9 1 11 -1 5 -6 -6 -4 -10 -14 -9 -20 1 -7 2 -20 3 -28 0 -8 8 -15 16
-15 22 0 30 -27 14 -47 -13 -15 -12 -15 8 -3 17 11 20 18 11 33 -5 10 -7 21
-4 24 3 3 8 -2 12 -11 3 -9 11 -13 18 -9 6 4 3 -5 -7 -20 -10 -15 -14 -27 -10
-26 4 1 38 1 76 0 l67 -1 0 -229 c0 -174 3 -230 13 -233 10 -3 1915 -2 1955 1
9 1 12 54 12 231 l0 230 66 0 c56 0 65 2 60 16 -3 9 -2 12 4 9 7 -4 9 3 6 17
-4 22 -1 23 30 20 25 -3 34 0 34 11 0 8 7 17 15 21 8 3 14 11 13 17 -2 6 3 14
10 16 7 3 10 -1 6 -10 -3 -8 -2 -17 3 -20 4 -3 9 10 10 29 2 19 4 37 4 41 1 5
1 27 0 51 l-1 42 -66 -1 c-43 -1 -64 -5 -61 -13 2 -6 1 -20 -3 -31 -6 -17 -16
-20 -51 -19 -24 2 -56 3 -71 3 -16 1 -28 6 -28 12 0 5 4 8 8 5 4 -2 8 6 8 20
0 13 -4 24 -8 24 -4 0 -8 -5 -8 -12 0 -9 -3 -9 -12 0 -7 7 -31 12 -53 12 -50
0 -56 5 -45 35 10 26 -2 35 -46 35 -27 0 -33 26 -11 49 10 11 9 13 -1 7 -10
-6 -12 28 -10 165 l3 173 47 2 c25 1 51 5 57 9 6 3 11 1 11 -5 0 -6 5 -8 10
-5 6 4 8 11 5 16 -4 5 -2 9 4 9 5 0 11 -3 14 -7 2 -5 2 -2 1 4 -2 7 5 17 14
22 16 10 16 10 0 11 -10 0 -18 -4 -18 -10 0 -5 -4 -10 -10 -10 -5 0 -7 7 -3
16 4 11 15 15 34 12 30 -5 33 0 31 52 -1 17 1 21 7 11 6 -9 11 -10 15 -2 8 13
26 5 26 -11 0 -5 -7 -7 -16 -4 -10 4 -13 2 -8 -6 4 -6 3 -8 -3 -5 -5 3 -10 -1
-10 -9 0 -10 4 -11 11 -4 16 16 30 12 16 -5 -11 -13 -10 -14 3 -9 11 4 15 15
13 35 -2 16 0 29 3 29 4 0 6 19 5 43 -2 23 -3 52 -3 64 -1 21 -6 22 -61 21
-34 -1 -60 -6 -61 -12 -1 -6 -2 -15 -4 -21 -1 -5 -3 -16 -3 -23 -2 -9 -20 -12
-67 -11 -36 1 -65 6 -65 11 0 4 -5 8 -11 8 -5 0 -8 -4 -5 -8 8 -14 -33 -7 -47
8 -10 10 -9 11 2 5 11 -6 13 -4 8 9 -4 10 -7 21 -7 25 0 5 -10 8 -22 8 -44 1
-48 3 -48 29 0 14 -9 37 -20 51 -11 14 -20 21 -20 16 0 -5 6 -15 13 -22 10
-11 9 -13 -6 -7 -10 3 -24 6 -30 6 -7 0 -6 4 3 10 12 8 12 10 1 10 -10 0 -11
3 -2 13 6 8 7 17 3 21 -4 4 -7 82 -8 172 l0 164 68 0 c59 0 67 2 61 17 -5 11
-3 14 6 8 10 -6 11 -3 2 14 -7 11 -10 21 -9 22 19 7 58 3 58 -5 0 -6 5 -3 10
6 7 11 19 15 38 13 15 -2 21 -2 14 1 -10 5 -9 10 5 21 10 8 12 12 6 8 -7 -3
-22 -1 -34 6 -12 6 -19 7 -16 2 3 -5 2 -15 -2 -22 -6 -9 -9 -4 -8 14 0 24 2
26 28 21 33 -6 31 -9 34 61 1 32 -2 50 -8 46 -6 -3 -7 -1 -3 5 4 7 4 17 0 23
-4 8 -9 7 -15 -2 -7 -12 -9 -12 -9 0 0 11 -3 11 -15 1 -8 -7 -15 -9 -15 -4 0
14 -59 9 -73 -6 -10 -10 -7 -11 11 -5 13 4 22 2 22 -4 0 -6 -5 -10 -12 -9 -7
2 -12 -3 -13 -11 0 -16 -35 -32 -50 -22 -5 3 -27 7 -48 8 -21 1 -42 5 -45 9
-4 4 4 4 18 1 23 -5 23 -5 7 7 -16 12 -16 14 -1 20 22 8 26 8 19 -3 -3 -6 4
-15 15 -21 13 -7 20 -7 20 0 0 5 -7 10 -16 10 -8 0 -12 5 -9 10 4 6 10 8 14 6
4 -3 8 2 8 10 0 10 -4 11 -10 5 -7 -7 -17 -6 -30 0 -14 8 -18 8 -13 0 10 -15
-7 -14 -22 1 -9 9 -12 9 -12 0 0 -7 -5 -12 -11 -12 -5 0 -8 3 -6 8 3 4 -17 8
-44 8 -30 1 -49 -3 -49 -10 0 -7 -3 -7 -8 -1 -4 6 -15 16 -25 24 -16 12 -17
12 -11 -5 4 -14 3 -16 -4 -5 -5 7 -15 10 -21 7 -6 -4 -11 -3 -11 2 0 5 10 14
23 21 l22 12 -23 -5 c-19 -4 -21 -2 -11 10 9 12 6 14 -20 14 -23 0 -30 -4 -25
-12 6 -10 4 -10 -7 0 -7 6 -28 12 -45 12 -30 0 -32 2 -31 31 l2 32 -65 1 -65
2 -3 33 c-3 26 -7 32 -21 28 -31 -8 -51 11 -47 43 2 17 -1 30 -6 30 -5 0 -4 9
2 20 7 13 7 20 1 20 -6 0 -8 6 -5 13 3 8 -2 14 -11 14 -10 0 -14 -6 -10 -16 5
-12 2 -12 -13 2 -24 22 -32 21 -33 0 0 -15 -2 -15 -9 2 -5 11 -9 14 -9 6 -1
-10 -4 -11 -15 -2 -10 9 -15 8 -19 -3z m313 -226 c0 -5 -7 -6 -17 -3 -10 4
-14 2 -9 -5 3 -6 2 -13 -3 -16 -7 -5 -8 11 -2 32 3 7 31 0 31 -8z m-460 -14
c0 -3 -4 -8 -10 -11 -5 -3 -10 -1 -10 4 0 6 5 11 10 11 6 0 10 -2 10 -4z
m-425 -95 c3 -5 2 -12 -3 -15 -5 -3 -9 1 -9 9 0 17 3 19 12 6z m-154 -28 c13
-16 12 -17 -3 -4 -10 7 -18 15 -18 17 0 8 8 3 21 -13z m1593 -9 c3 -8 2 -12
-4 -9 -6 3 -10 10 -10 16 0 14 7 11 14 -7z m26 -118 c0 -3 -4 -8 -10 -11 -5
-3 -10 -1 -10 4 0 6 5 11 10 11 6 0 10 -2 10 -4z m140 -597 c0 -5 -5 -9 -12
-9 -6 0 -8 3 -5 7 4 3 1 13 -6 22 -11 14 -10 14 6 2 9 -7 17 -17 17 -22z m42
24 c-6 -2 -10 -9 -7 -13 3 -5 1 -11 -4 -14 -7 -5 -8 11 -2 32 1 1 7 2 14 1 9
0 9 -2 -1 -6z m-52 -733 c3 -1 10 -2 15 -1 6 1 2 -5 -7 -12 -10 -8 -15 -16
-12 -19 3 -4 1 -9 -4 -12 -5 -3 -15 1 -22 9 -10 12 -9 15 4 15 9 0 16 5 16 11
0 5 -4 8 -9 4 -5 -3 -12 -1 -15 4 -5 8 15 8 34 1z m191 -13 c-6 -8 -7 -18 -3
-22 4 -5 1 -5 -6 -1 -10 6 -10 11 -1 22 6 8 14 14 16 14 3 0 0 -6 -6 -13z m79
-11 c0 -3 -4 -8 -10 -11 -5 -3 -10 -1 -10 4 0 6 5 11 10 11 6 0 10 -2 10 -4z
m-23 -101 c0 -8 -4 -15 -9 -15 -4 0 -8 7 -8 15 0 8 4 15 8 15 5 0 9 -7 9 -15z"/>
<path d="M864 2295 c-3 -8 -4 -20 -2 -27 3 -7 7 -1 10 15 6 29 1 36 -8 12z"/>
<path d="M1763 2286 c-9 -11 -9 -15 0 -19 7 -3 14 3 14 14 2 22 2 22 -14 5z"/>
<path d="M1999 2238 c-5 -18 -6 -38 -1 -34 7 8 12 36 6 36 -2 0 -4 -1 -5 -2z"/>
<path d="M633 2210 c1 -21 10 -18 13 5 1 8 -2 15 -6 15 -5 0 -8 -9 -7 -20z"/>
<path d="M2016 2202 c-3 -5 1 -9 9 -9 8 0 12 4 9 9 -3 4 -7 8 -9 8 -2 0 -6 -4
-9 -8z"/>
<path d="M2070 2020 c0 -5 5 -10 10 -10 6 0 10 5 10 10 0 6 -4 10 -10 10 -5 0
-10 -4 -10 -10z"/>
<path d="M686 1642 c-3 -5 1 -9 9 -9 8 0 12 4 9 9 -3 4 -7 8 -9 8 -2 0 -6 -4
-9 -8z"/>
<path d="M1946 1642 c-3 -5 1 -9 9 -9 8 0 12 4 9 9 -3 4 -7 8 -9 8 -2 0 -6 -4
-9 -8z"/>
<path d="M2065 1489 c0 -17 4 -25 12 -22 16 6 17 23 2 23 -5 0 -7 5 -3 12 5 8
11 6 20 -7 12 -16 13 -16 11 2 0 12 -8 19 -22 19 -16 0 -21 -6 -20 -27z"/>
<path d="M565 1481 c-3 -5 -2 -12 3 -15 5 -3 9 1 9 9 0 17 -3 19 -12 6z"/>
<path d="M271 1366 c-10 -11 -9 -14 1 -12 14 2 23 15 15 22 -2 2 -10 -2 -16
-10z"/>
<path d="M309 1353 c-1 -5 -1 -12 0 -16 1 -5 -8 -6 -19 -2 -11 3 -20 2 -20 -3
0 -17 43 -7 46 11 1 9 0 17 -2 17 -2 0 -5 -3 -5 -7z"/>
<path d="M330 1299 c0 -5 5 -7 10 -4 6 3 10 8 10 11 0 2 -4 4 -10 4 -5 0 -10
-5 -10 -11z"/>
<path d="M2293 1294 c-7 -3 -9 -12 -6 -20 8 -21 19 -17 19 6 0 11 0 20 -1 19
0 0 -5 -3 -12 -5z"/>
<path d="M350 1275 c0 -8 4 -15 10 -15 5 0 7 7 4 15 -4 8 -8 15 -10 15 -2 0
-4 -7 -4 -15z"/>
<path d="M466 902 c-3 -5 1 -9 9 -9 8 0 12 4 9 9 -3 4 -7 8 -9 8 -2 0 -6 -4
-9 -8z"/>
<path d="M2140 891 c0 -7 -5 -9 -12 -5 -7 5 -8 3 -3 -5 5 -9 10 -10 18 -2 6 6
8 14 4 18 -4 3 -7 1 -7 -6z"/>
<path d="M334 767 c0 -18 5 -23 23 -22 12 0 26 5 30 9 4 5 3 6 -3 3 -6 -3 -17
3 -24 14 -19 25 -26 24 -26 -4z"/>
<path d="M82 632 c11 -13 10 -15 -4 -9 -12 4 -15 2 -11 -9 3 -8 8 -12 11 -10
3 3 11 1 19 -5 9 -9 13 -8 14 0 5 41 3 46 -19 47 -19 1 -20 -1 -10 -14z"/>
<path d="M2531 610 c-9 -5 -4 -7 13 -7 29 0 32 2 13 10 -8 3 -20 2 -26 -3z"/>
<path d="M141 564 c0 -11 3 -14 6 -6 3 7 2 16 -1 19 -3 4 -6 -2 -5 -13z"/>
<path d="M2476 565 c-11 -8 -15 -15 -9 -15 7 0 15 5 18 10 4 6 11 7 17 4 7 -4
8 -2 4 4 -9 14 -7 15 -30 -3z"/>
<path d="M2485 540 c-3 -6 1 -7 9 -4 18 7 21 14 7 14 -6 0 -13 -4 -16 -10z"/>
</g>
</svg>
